<svg width="409" height="409" viewBox="0 0 409 409" fill="none" xmlns="http://www.w3.org/2000/svg">
<path fill-rule="evenodd" clip-rule="evenodd" d="M59.8933 352.769C57.8176 336.398 59.8933 301.851 59.8933 283.529C59.8933 260.184 59.8933 236.839 59.8933 213.494C59.8933 201.504 55.0117 154.886 67.8447 151.41C79.3156 148.303 124.955 146.211 126.66 161.052C130.721 196.402 126.745 261.662 126.745 300.242C126.745 311.965 131.567 359.772 119.11 362.642C112.602 364.141 92.5549 363.056 84.599 363.08C74.8765 363.109 61.5805 366.076 59.8933 352.769V352.769ZM37.0495 1H132.316C199.58 1 269.038 1.63987 335.963 1.09222C337.601 1.07899 339.267 1.0446 340.953 1H371.019C388.516 2.59307 403.517 9.07648 407.54 31.3855C407.912 33.4518 408.222 35.8125 408.478 38.412V132.316C408.478 199.58 407.839 269.038 408.386 335.963C408.399 337.601 408.434 339.267 408.478 340.953V371.019C406.885 388.516 400.402 403.517 378.093 407.54C376.027 407.912 373.666 408.222 371.066 408.478H277.162C209.898 408.478 140.441 407.839 73.5151 408.386C71.8775 408.399 70.2115 408.434 68.5258 408.478H38.4596C20.9619 406.885 5.96176 400.402 1.93883 378.093C1.56617 376.027 1.25625 373.666 1 371.066V277.162C1 209.898 1.63987 140.441 1.09222 73.5151C1.07861 71.868 1.04422 70.1854 1 68.4774V39.5803C2.50085 21.6037 8.82702 5.84082 31.2426 1.79597C32.9555 1.48681 34.9058 1.22375 37.0495 1V1ZM223.976 176.748C225.83 176.38 241.116 153.12 271.417 148.855C291.931 145.969 316.139 148.098 333.518 160.321C369.131 185.367 365.502 241.959 365.502 280.346C365.502 296.801 367.667 342.472 365.138 355.588C362.582 368.844 302.225 363.25 299.479 359.898C290.474 348.906 306.423 241.909 289.085 218.284C276.876 201.647 251.366 200.399 237.528 215.243C222.046 231.851 223.845 256.996 223.836 277.955C223.827 300.704 225.675 331.896 223.858 353.583C222.721 367.169 205.941 363.044 195.182 363.111C188.003 363.156 164.215 364.847 159.987 360.115C154.792 354.302 157.798 203.047 157.783 172.905C157.776 157.464 155.449 150.53 173.656 150.576C185.898 150.607 199.884 149.984 211.894 150.629C228.535 151.523 222.985 163.973 223.976 176.748V176.748ZM50.3432 94.1151C42.7895 38.1743 132.253 28.614 136.252 84.6134C140.412 142.887 57.7859 149.235 50.3432 94.1151Z" fill="#55569E" stroke="#FEFEFE" stroke-width="0.755906" stroke-miterlimit="22.9256"/>
</svg>
